<svg xmlns="http://www.w3.org/2000/svg" fill="none" height="41" viewBox="0 0 121 41" width="121"><g fill="#fff"><path d="m59.9191 21.153c1.0842 0 1.9744-.372 2.6704-1.1164.6959-.7441 1.044-1.7068 1.044-2.8881 0-1.1808-.3441-2.1478-1.0318-2.9002-.6881-.7524-1.5823-1.1285-2.6826-1.1285-1.1009 0-1.9951.3761-2.6826 1.1285-.6883.7524-1.0319 1.7194-1.0319 2.9002 0 1.1813.3478 2.144 1.044 2.8881.6956.7444 1.5859 1.1164 2.6705 1.1164zm-6.3364-10.1446h2.6219l.0243 1.8202c.8899-1.4721 2.3549-2.2087 4.3941-2.2087 1.1005 0 2.0919.2671 2.974.801.8822.5339 1.5781 1.2946 2.0879 2.2814.5099.9871.7648 2.1277.7648 3.4219 0 1.165-.2512 2.2412-.7525 3.228-.5019.987-1.2101 1.7837-2.1243 2.3905-.9146.6066-1.9385.91-3.0712.91-.9065 0-1.7156-.1699-2.4277-.5096-.7125-.3398-1.2789-.8331-1.6994-1.4805v7.5479h-2.7919z"/><path d="m78.2239 15.9593c-.0649-1.0029-.3642-1.7796-.8983-2.3298-.5342-.5499-1.2709-.8253-2.2092-.8253-.9226 0-1.6753.2754-2.258.8253-.5825.5502-.9388 1.3269-1.0681 2.3298zm-2.2093 7.6935c-1.3921 0-2.6139-.2548-3.6658-.7645-1.0524-.5096-1.8696-1.2579-2.4522-2.2449-.5826-.9868-.8739-2.1436-.8739-3.4705 0-1.2457.2549-2.3623.7647-3.3493.5099-.9867 1.2341-1.7675 2.1729-2.342.9384-.5742 2.023-.8616 3.2532-.8616 1.1167 0 2.108.2427 2.974.7281.8657.4853 1.5416 1.1893 2.0271 2.1115.4856.9221.7283 1.9984.7283 3.2278 0 .6151-.0326 1.0763-.097 1.3833h-9.0313c.1778 1.052.6513 1.865 1.4202 2.4392.7687.5745 1.7761.8616 3.0227.8616 1.4567 0 2.832-.3156 4.127-.9465l.2914 2.1842c-.599.3238-1.3111.5786-2.1363.7645-.8254.1858-1.6673.2791-2.525.2791z"/><path d="m84.2929 11.0083h2.6705l.0243 1.5776c.34-.6311.8413-1.1164 1.5052-1.4563.6634-.3396 1.4324-.5096 2.3064-.5096 1.4726 0 2.6015.4491 3.3866 1.3469.785.8981 1.1777 2.1885 1.1777 3.8711v7.4264h-2.7921v-6.9168c0-1.1001-.2063-1.9172-.619-2.4511-.4128-.5339-1.0483-.801-1.9058-.801-.9388 0-1.6673.3075-2.1851.9223-.5181.6151-.7768 1.4724-.7768 2.5725v6.6741h-2.7919z"/><path d="m100.389 13.3625h-2.5737v-2.3542h2.5737v-3.42193h2.791v3.42193h3.132v2.3542h-3.132v9.902h-2.791z"/><path d="m114.469 21.153c1.101 0 1.995-.3761 2.683-1.1285s1.032-1.719 1.032-2.9003c0-1.1808-.348-2.1436-1.044-2.888-.696-.744-1.586-1.1164-2.671-1.1164-1.084 0-1.974.3724-2.67 1.1164-.696.7444-1.044 1.7072-1.044 2.888 0 1.1813.344 2.1479 1.032 2.9003s1.582 1.1285 2.682 1.1285zm0 2.4997c-1.198 0-2.29-.2711-3.277-.813-.988-.5419-1.776-1.3144-2.367-2.3178-.591-1.0029-.886-2.1357-.886-3.3977 0-1.1648.275-2.2406.825-3.2277.55-.9868 1.327-1.7798 2.331-2.3785 1.003-.5984 2.128-.8981 3.374-.8981 1.198 0 2.291.2713 3.278.8132.987.5422 1.776 1.3104 2.367 2.3056.591.9949.886 2.1235.886 3.3855 0 1.1813-.275 2.2655-.825 3.2521-.551.9872-1.328 1.7801-2.331 2.3786-1.004.5983-2.128.8978-3.375.8978z"/><path d="m31.5036 23.3498c0 .8977-.7305 1.628-1.6284 1.628h-.3984v-14.9317h.3984c.8979 0 1.6284.7302 1.6284 1.6279zm-3.7122 3.7135c0 .8975-.7305 1.6278-1.6285 1.6278h-.3931v-2.0284h2.0216zm-3.707 3.7186c0 .8976-.7305 1.6279-1.6285 1.6279h-13.30819v-2.0338h14.93669zm0-4.1192v2.0284h-14.93669v-2.0284zm0-16.6166v14.9317h-14.93669v-14.9317zm-18.6649-1.68492v-.39443c0-.89757.7305-1.62783 1.62852-1.62783h.41425v2.02226zm22.3719 1.68492v14.9317h-2.0217v-14.9317zm-3.707-3.70718v2.02226h-14.93669v-2.02226zm-1.6285-3.71068c.898 0 1.6285.73027 1.6285 1.62799v.39765h-14.93669v-.39765c0-.89772.73051-1.62799 1.62849-1.62799zm3.707 3.71068c.898 0 1.6285.73026 1.6285 1.62783v.39443h-2.0216v-2.02226zm3.3139 2.02226v-.39443c0-1.82666-1.4865-3.31287-3.3139-3.31287h-.3931v-.39765c0-1.82682-1.4865-3.312871-3.3139-3.312871h-11.6797c-1.82738 0-3.31393 1.486051-3.31393 3.312871v.39765h-.41425c-1.82726 0-3.31396 1.48621-3.31396 3.31287v.39443h-.42009c-1.82742 0-3.31397 1.48605-3.31397 3.31282v29.258h1.68544v-29.258c0-.8977.73051-1.6279 1.62853-1.6279h.42009v30.889h1.68544v-30.889h2.04277v30.8973h1.68544v-6.8487h13.30819c1.8274 0 3.3139-1.4863 3.3139-3.3128v-.4059h.3931c1.8274 0 3.3139-1.4861 3.3139-3.3127v-.4006h.3984c1.8273 0 3.3138-1.4862 3.3138-3.3129v-11.6758c0-1.82677-1.4865-3.31282-3.3138-3.31282z"/></g></svg>