
<svg width="128" height="32" viewBox="0 0 128 32" fill="none" xmlns="http://www.w3.org/2000/svg">
<g clip-path="url(#clip0)">
<path d="M23.6582 0L37.0707 32V0H23.6582ZM0.858398 0V32L14.2709 0H0.858398ZM13.1208 25.4743H19.2454L21.9332 31.9866H27.4827L18.8709 11.6874L13.1208 25.4743Z" fill="#A6A8B3"/>
<path d="M59.5496 20.6463L58.0786 25.0726C58.0251 25.2331 57.9449 25.2865 57.7844 25.2865H55.0966C54.9361 25.2865 54.8826 25.2063 54.9094 25.0191L60.4455 9.27986C60.5525 9.01242 60.6327 8.74497 60.6862 7.83565C60.6862 7.72867 60.7397 7.64844 60.8467 7.64844H64.5776C64.7113 7.64844 64.738 7.67518 64.7648 7.80891L70.9696 25.0592C70.9963 25.2197 70.9696 25.2999 70.8091 25.2999H67.8003C67.6666 25.2999 67.5864 25.2464 67.5329 25.1395L65.9683 20.6597H59.5496V20.6463ZM65.1125 17.7178C64.5508 15.9393 63.2805 12.2084 62.7456 10.3363H62.7188C62.2909 12.1415 61.2077 15.284 60.4054 17.7178H65.1125Z" fill="#A6A8B3"/>
<path d="M71.9324 18.7875C71.9324 14.8962 74.8342 11.7804 79.568 11.7804C79.9424 11.7804 80.2633 11.8072 80.718 11.8607V6.35128C80.718 6.21755 80.7715 6.16406 80.8785 6.16406H83.807C83.9407 6.16406 83.9407 6.21755 83.9407 6.32453V22.5452C83.9407 23.0801 83.9942 23.7754 84.0477 24.2702C84.0477 24.4039 84.021 24.4574 83.8872 24.5109C82.1355 25.2598 80.4238 25.554 78.8057 25.554C74.9144 25.5673 71.9324 23.3074 71.9324 18.7875ZM80.718 14.6822C80.3703 14.5485 79.9424 14.495 79.461 14.495C77.0673 14.495 75.2754 16.0328 75.2754 18.6271C75.2754 21.5556 77.0272 22.7591 79.1668 22.7591C79.7017 22.7591 80.2366 22.7056 80.7314 22.5452V14.6822H80.718Z" fill="#A6A8B3"/>
<path d="M99.4393 18.6011C99.4393 22.7599 96.7782 25.5547 92.9938 25.5547C88.5007 25.5547 86.5216 22.0913 86.5216 18.6814C86.5216 14.8703 89.0222 11.7812 93.0473 11.7812C97.1927 11.7812 99.4393 14.9237 99.4393 18.6011ZM89.7978 18.6279C89.7978 21.1018 91.0013 22.8134 93.0473 22.8134C94.7188 22.8134 96.1363 21.4494 96.1363 18.6814C96.1363 16.4482 95.1735 14.4958 92.8868 14.4958C91.0949 14.4958 89.7978 16.0738 89.7978 18.6279Z" fill="#A6A8B3"/>
<path d="M104.975 6.16406C105.163 6.16406 105.216 6.19081 105.216 6.37802L105.243 12.1549C105.965 11.9142 106.807 11.7804 107.69 11.7804C111.555 11.7804 114.028 14.5218 114.028 18.1189C114.028 23.0934 110.164 25.554 106.179 25.554C104.788 25.554 103.438 25.3667 102.154 24.9656C102.047 24.9388 101.967 24.8051 101.967 24.7249V6.35128C101.967 6.21755 102.047 6.16406 102.154 6.16406H104.975ZM107.128 14.5485C106.192 14.5485 105.684 14.6822 105.243 14.8427V22.6923C105.617 22.7992 106.018 22.826 106.473 22.826C108.68 22.826 110.712 21.4353 110.712 18.4532C110.726 15.8858 109.255 14.5485 107.128 14.5485Z" fill="#A6A8B3"/>
<path d="M119.217 19.4172C119.297 21.3027 120.527 22.8004 123.269 22.8004C124.472 22.8004 125.582 22.5864 126.598 22.1585C126.679 22.105 126.759 22.1317 126.759 22.2655V24.4986C126.759 24.6591 126.705 24.7393 126.598 24.7928C125.582 25.2742 124.392 25.5684 122.573 25.5684C117.679 25.5684 115.941 22.1317 115.941 18.8288C115.941 15.0979 118.201 11.7949 122.252 11.7949C126.224 11.7949 127.762 14.9107 127.762 17.4648C127.762 18.2136 127.735 18.8288 127.655 19.1363C127.628 19.2433 127.575 19.2968 127.441 19.3235C127.066 19.4038 125.997 19.4305 124.673 19.4305H119.217V19.4172ZM123.215 17.1037C124.232 17.1037 124.579 17.1037 124.686 17.077C124.686 16.9968 124.686 16.8898 124.686 16.863C124.686 16.0874 124.151 14.3624 122.105 14.3624C120.247 14.3624 119.418 15.7799 119.204 17.1037H123.215Z" fill="#A6A8B3"/>
</g>
<defs>
<clipPath id="clip0">
<rect width="126.903" height="32" fill="white" transform="translate(0.858398)"/>
</clipPath>
</defs>
</svg>
