<svg xmlns="http://www.w3.org/2000/svg" fill="none" height="21" viewBox="0 0 101 21" width="101"><path d="m86.9071 10.0891c1.0189.3566 2.1398.5604 3.4649.5604 3.5157 0 5.4011-1.78337 5.4011-4.84065 0-3.26111-2.1403-5.044531-6.0639-5.044531h-2.8534v9.324781zm12.433 8.4584c.3565 1.121.611 1.7834.9679 2.344h-3.8218c-.1016-.6624-.2545-1.4268-.4074-2.0892l-.7644-3.2102c-.7644-3.2101-1.9874-4.1782-5.2994-4.1782h-3.21v4.8407c0 1.8344.1021 3.363.4074 4.6369h-3.5665c.1528-1.2739.2544-2.8025.2544-4.6369v-11.61771c0-1.83438-.1016-3.36302-.2544-4.63689h6.1654c5.9618 0 9.0702 1.93628 9.0702 5.60503 0 3.00633-2.1403 5.04447-5.9618 5.45217 3.2099.6114 4.5858 1.7834 5.401 4.4331zm-19.4649-.3057-.2037 2.6497h-13.7068c.1529-1.2739.2545-2.8025.2545-4.6369v-11.61771c0-1.83438-.1016-3.36302-.2545-4.63689h13.1969l-.4074 2.19106-3.4141-.91719c-1.3246-.356687-2.4456-.509551-4.0764-.509551h-2.1398v8.866151h2.1398c1.478 0 3.4141-.15288 5.911-.56052v2.03815c-2.4969-.4076-4.433-.5605-5.911-.5605h-2.1398v9.5286h1.834c1.9367 0 3.5162-.2038 5.4524-.7644zm-19.3628-1.9363c0 1.8344.102 3.363.2549 4.6369h-3.4649c.1529-1.2739.2545-2.8025.2545-4.6369v-11.66861c0-1.83438-.1016-3.36302-.2545-4.63689h3.4649c-.1529 1.27387-.2549 2.80251-.2549 4.63689zm-16.1528-4.5349c3.5159 0 5.5032-1.9873 5.5032-5.40123 0-3.56686-2.2421-5.605051-6.1146-5.605051h-2.8025v10.292881c1.1719.4586 2.3949.7134 3.4139.7134zm-.4586-11.7706c5.9618 0 9.1209 2.19106 9.1209 6.26744 0 4.07636-3.1082 6.42026-8.5094 6.42026-1.07 0-2.3949-.1019-3.5668-.3057v3.9235c0 1.8344.1019 3.363.4076 4.6369h-3.5668c.1529-1.2739.2548-2.8025.2548-4.6369v-11.66861c0-1.83438-.1019-3.36302-.2548-4.63689zm-19.7194 1.42673-3.8217 11.21007h7.6433zm6.2165 19.51567c-.4586-2.191-1.172-4.7897-1.9873-7.2865h-8.3566c-.7643 2.4458-1.172 4.6878-1.5286 7.2865h-2.7516c1.2739-2.6496 2.5987-5.7069 3.4649-8.1528l4.586-12.7896h3.1592c.1529.713367.5604 2.03819 1.07 3.46493l3.8216 10.90437c.8153 2.4458 1.5796 4.2801 2.4459 6.5222h-3.9235zm-23.13355-9.1718c3.51595 0 5.50315-1.9873 5.50315-5.40123 0-3.56686-2.242-5.605051-6.11457-5.605051h-2.80253v10.292881c1.17196.4586 2.39489.7134 3.41395.7134zm-.45859-11.7706c5.96174 0 9.12094 2.19106 9.12094 6.26744 0 4.07636-3.1083 6.42026-8.50947 6.42026-1.07006 0-2.39487-.1019-3.56683-.3057v3.9235c0 1.8344.10191 3.363.40764 4.6369h-3.566834c.152865-1.2739.254774-2.8025.254774-4.6369v-11.66861c0-1.83438-.101909-3.36302-.254774-4.63689z" fill="#fff"/></svg>