
<svg width="123" height="32" viewBox="0 0 123 32" fill="none" xmlns="http://www.w3.org/2000/svg">
<g clip-path="url(#clip0)">
<path d="M51.4551 8.20048V23.8005H48.7467V11.5588H48.7106L43.8717 23.8005H42.0662L37.119 11.5588H37.0829V23.8005H34.5912V8.20048H38.4912L42.969 19.756H43.0412L47.7717 8.20048H51.4551V8.20048ZM53.694 9.39214C53.694 8.95881 53.8384 8.5977 54.1634 8.30881C54.4884 8.01992 54.8495 7.87548 55.2829 7.87548C55.7523 7.87548 56.1495 8.01992 56.4384 8.30881C56.7273 8.5977 56.9079 8.95881 56.9079 9.39214C56.9079 9.82548 56.7634 10.1866 56.4384 10.4755C56.1134 10.7644 55.7523 10.9088 55.2829 10.9088C54.8134 10.9088 54.4523 10.7644 54.1634 10.4755C53.8745 10.1505 53.694 9.78937 53.694 9.39214ZM56.619 12.606V23.8005H53.9829V12.606H56.619ZM64.5995 21.8866C64.9967 21.8866 65.4301 21.8144 65.8995 21.5977C66.369 21.4171 66.8023 21.1644 67.1995 20.8755V23.331C66.7662 23.5838 66.2967 23.7644 65.7551 23.8727C65.2134 23.981 64.6356 24.0533 63.9856 24.0533C62.3245 24.0533 60.9884 23.5477 59.9773 22.5005C58.9301 21.4533 58.4245 20.1171 58.4245 18.5283C58.4245 16.7227 58.9662 15.2421 60.0134 14.0866C61.0606 12.931 62.5412 12.3533 64.4912 12.3533C64.9967 12.3533 65.5023 12.4255 65.9717 12.5338C66.4773 12.6421 66.8745 12.8227 67.1634 12.9671V15.4949C66.7662 15.206 66.3329 14.9533 65.9356 14.8088C65.5023 14.6644 65.069 14.556 64.6356 14.556C63.5884 14.556 62.7578 14.881 62.1078 15.5671C61.4578 16.2533 61.169 17.156 61.169 18.3116C61.169 19.431 61.494 20.3338 62.1078 20.9477C62.7217 21.5616 63.5523 21.8866 64.5995 21.8866ZM74.6745 12.4255C74.8912 12.4255 75.0717 12.4255 75.2523 12.4616C75.4329 12.4977 75.5773 12.5338 75.6856 12.5699V15.2421C75.5412 15.1338 75.3606 15.0255 75.0717 14.9533C74.7829 14.881 74.494 14.8088 74.0967 14.8088C73.4467 14.8088 72.9051 15.0977 72.4717 15.6394C72.0384 16.181 71.7856 17.0116 71.7856 18.1671V23.8005H69.1495V12.606H71.7856V14.3755H71.8217C72.0745 13.7616 72.4356 13.2921 72.9051 12.931C73.4106 12.606 73.9884 12.4255 74.6745 12.4255ZM75.8301 18.3838C75.8301 16.5421 76.3717 15.0616 77.3828 13.9783C78.4301 12.8949 79.8745 12.3533 81.7162 12.3533C83.4495 12.3533 84.8217 12.8588 85.7967 13.906C86.7717 14.9533 87.2773 16.3616 87.2773 18.131C87.2773 19.9366 86.7356 21.381 85.7245 22.4644C84.6773 23.5477 83.269 24.0894 81.4634 24.0894C79.7301 24.0894 78.3579 23.5838 77.3467 22.5727C76.3356 21.5255 75.8301 20.1171 75.8301 18.3838ZM78.5745 18.2755C78.5745 19.431 78.8273 20.3338 79.369 20.9477C79.9106 21.5616 80.669 21.8866 81.644 21.8866C82.5828 21.8866 83.3412 21.5977 83.8467 20.9477C84.3523 20.3338 84.6051 19.431 84.6051 18.2033C84.6051 17.0116 84.3523 16.1088 83.8467 15.4588C83.3412 14.8449 82.5829 14.5199 81.6801 14.5199C80.7051 14.5199 79.9828 14.8449 79.4412 15.4949C78.8273 16.181 78.5745 17.0838 78.5745 18.2755ZM91.2134 15.5671C91.2134 15.9283 91.3217 16.2533 91.5745 16.4699C91.8273 16.6866 92.3328 16.9394 93.1634 17.2644C94.2106 17.6977 94.969 18.1671 95.3662 18.6727C95.7995 19.2144 96.0162 19.8283 96.0162 20.5866C96.0162 21.6338 95.619 22.4644 94.7884 23.1144C93.994 23.7644 92.8745 24.0533 91.5023 24.0533C91.0328 24.0533 90.5273 23.981 89.9495 23.8727C89.3717 23.7644 88.9023 23.6199 88.5051 23.4394V20.8394C88.9745 21.1644 89.5162 21.4533 90.0578 21.6338C90.5995 21.8144 91.1051 21.9227 91.5745 21.9227C92.1523 21.9227 92.6217 21.8505 92.8745 21.6699C93.1634 21.4894 93.3078 21.2366 93.3078 20.8394C93.3078 20.4783 93.1634 20.1894 92.8745 19.9005C92.5856 19.6477 92.0078 19.3588 91.2134 19.0338C90.2384 18.6366 89.5523 18.1671 89.1551 17.6616C88.7578 17.156 88.5412 16.506 88.5412 15.7116C88.5412 14.7005 88.9384 13.8699 89.7328 13.2199C90.5273 12.5699 91.5745 12.2449 92.8384 12.2449C93.2356 12.2449 93.669 12.281 94.1384 12.3894C94.6079 12.4977 95.0412 12.606 95.3662 12.7144V15.2783C95.0051 15.0616 94.6079 14.8449 94.1384 14.6644C93.669 14.4838 93.1995 14.4116 92.7662 14.4116C92.2606 14.4116 91.8634 14.5199 91.6106 14.7005C91.3579 14.9533 91.2134 15.206 91.2134 15.5671ZM97.1356 18.3838C97.1356 16.5421 97.6773 15.0616 98.6884 13.9783C99.7356 12.8949 101.18 12.3533 103.022 12.3533C104.755 12.3533 106.127 12.8588 107.102 13.906C108.077 14.9533 108.583 16.3616 108.583 18.131C108.583 19.9366 108.041 21.381 107.03 22.4644C105.983 23.5477 104.575 24.0894 102.769 24.0894C101.036 24.0894 99.6634 23.5838 98.6523 22.5727C97.6773 21.5255 97.1356 20.1171 97.1356 18.3838ZM99.8801 18.2755C99.8801 19.431 100.133 20.3338 100.675 20.9477C101.216 21.5616 101.975 21.8866 102.95 21.8866C103.888 21.8866 104.647 21.5977 105.152 20.9477C105.658 20.3338 105.911 19.431 105.911 18.2033C105.911 17.0116 105.658 16.1088 105.152 15.4588C104.647 14.8449 103.888 14.5199 102.986 14.5199C102.011 14.5199 101.288 14.8449 100.747 15.4949C100.169 16.181 99.8801 17.0838 99.8801 18.2755ZM117.358 14.7727H113.422V23.8005H110.75V14.7727H108.872V12.606H110.75V11.0533C110.75 9.8977 111.147 8.9227 111.905 8.16437C112.663 7.40603 113.638 7.04492 114.83 7.04492C115.155 7.04492 115.444 7.08103 115.697 7.08103C115.95 7.08103 116.166 7.15326 116.347 7.22548V9.50048C116.275 9.46437 116.094 9.39214 115.877 9.31992C115.661 9.2477 115.408 9.21159 115.119 9.21159C114.577 9.21159 114.144 9.39214 113.855 9.71714C113.566 10.0421 113.422 10.5838 113.422 11.2338V12.5699H117.358V10.0421L119.994 9.2477V12.5699H122.666V14.7366H119.994V19.9727C119.994 20.6588 120.138 21.1283 120.355 21.4171C120.608 21.706 121.005 21.8505 121.547 21.8505C121.691 21.8505 121.872 21.8144 122.088 21.7421C122.305 21.6699 122.486 21.5977 122.63 21.4894V23.656C122.45 23.7644 122.197 23.8366 121.8 23.9088C121.402 23.981 121.041 24.0171 120.644 24.0171C119.525 24.0171 118.694 23.7283 118.152 23.1505C117.611 22.5727 117.322 21.6699 117.322 20.4783L117.358 14.7727Z" fill="#A6A8B3"/>
<path d="M13.1051 3H0.755127V15.35H13.1051V3Z" fill="#A6A8B3"/>
<path d="M26.755 3H14.405V15.35H26.755V3Z" fill="#A6A8B3"/>
<path d="M13.1051 16.6504H0.755127V29.0004H13.1051V16.6504Z" fill="#A6A8B3"/>
<path d="M26.755 16.6504H14.405V29.0004H26.755V16.6504Z" fill="#A6A8B3"/>
</g>
<defs>
<clipPath id="clip0">
<rect width="121.911" height="26" fill="white" transform="translate(0.755127 3)"/>
</clipPath>
</defs>
</svg>
